
<svg version="1.0" xmlns="http://www.w3.org/2000/svg"
 viewBox="0 0 300.000000 300.000000"
 preserveAspectRatio="xMidYMid meet">
<g transform="translate(0.000000,300.000000) scale(0.050000,-0.050000)"
fill="#000000" stroke="none">
<path d="M954 3917 c-137 -138 -135 -123 -135 -843 -1 -714 2 -729 169 -879
84 -76 138 -86 243 -46 85 33 697 446 739 500 11 13 36 23 55 20 19 -3 31 1
26 10 -6 8 20 32 57 51 l67 36 98 -80 c167 -139 289 -165 451 -97 66 27 82 27
160 -1 61 -22 115 -27 186 -17 55 8 154 16 220 18 66 1 134 9 151 18 21 10 85
-21 196 -95 248 -165 310 -168 529 -24 225 148 492 140 661 -19 140 -132 386
-6 477 243 13 38 32 68 41 68 10 0 13 8 7 17 -6 9 7 74 29 145 84 279 -47 499
-262 438 -72 -21 -71 -22 -242 137 -68 63 -80 66 -170 55 -120 -16 -158 -16
-347 -3 l-150 11 -90 -80 c-55 -49 -117 -84 -160 -91 -38 -6 -118 -23 -176
-37 -89 -23 -116 -23 -160 -1 -48 24 -145 26 -404 8 -144 -9 -358 36 -422 89
-166 140 -297 140 -469 0 -60 -48 -121 -88 -137 -88 -42 0 -132 116 -132 170
0 150 -200 294 -370 265 l-120 -20 -164 105 c-244 155 -311 158 -452 17z m369
-192 c196 -128 197 -130 127 -161 -49 -23 -50 -28 -50 -242 l0 -218 -64 -22
c-252 -88 -223 -442 36 -442 90 0 213 81 237 156 8 25 34 34 100 34 153 0 199
65 211 302 l10 191 125 -95 c205 -158 217 -142 -469 -615 -605 -418 -566 -451
-566 475 0 858 -8 841 303 637z m533 -403 c-7 -374 -22 -422 -138 -422 -55 0
-118 61 -118 114 0 43 77 106 130 106 49 0 50 3 50 150 0 83 -2 150 -5 150 -3
0 -50 -17 -105 -38 l-100 -38 -10 -248 c-13 -324 -66 -409 -231 -368 -160 41
-80 281 91 276 l59 -1 5 253 6 254 170 74 c94 40 177 74 186 75 9 0 14 -151
10 -337z m2464 -232 l0 -310 -60 0 -60 0 0 310 0 310 60 0 60 0 0 -310z m159
281 c35 -42 18 -119 -28 -128 -70 -13 -111 74 -60 126 39 39 57 39 88 2z m341
-30 c0 -45 -10 -60 -45 -65 -29 -4 -47 -22 -52 -53 -5 -38 2 -45 40 -40 36 5
49 -4 53 -38 6 -37 -3 -45 -45 -45 -51 0 -51 -1 -51 -165 l0 -165 -60 0 -60 0
0 165 c0 133 -6 165 -30 165 -17 0 -30 18 -30 41 0 22 14 45 30 52 17 6 30 36
30 66 0 78 73 136 175 139 37 2 45 -9 45 -57z m-2147 6 c59 -28 123 -100 104
-116 -31 -26 -116 -26 -137 -1 -49 59 -170 26 -157 -42 5 -27 37 -45 106 -62
184 -46 249 -211 124 -318 -101 -87 -317 -53 -368 58 -31 69 74 95 135 34 47
-47 98 -51 151 -11 57 42 18 91 -106 131 -169 55 -214 126 -154 242 54 105
183 142 302 85z m480 -182 c205 -167 25 -479 -222 -385 -138 52 -168 261 -52
365 74 66 205 75 274 20z m227 14 c0 -14 12 -14 39 0 148 80 241 -14 241 -242
l0 -157 -60 0 -60 0 0 151 c0 252 -125 245 -136 -8 l-6 -143 -59 0 -59 0 0
210 0 210 50 0 c28 0 50 -9 50 -21z m601 0 c27 -14 39 -14 39 0 0 12 27 21 60
21 l60 0 0 -225 c-1 -259 -18 -309 -124 -361 -129 -63 -352 17 -272 98 29 29
43 31 86 12 102 -47 190 -19 190 59 0 30 -8 32 -59 14 -130 -45 -262 55 -260
197 2 148 157 251 280 185z m519 -196 l0 -216 -60 9 -60 9 0 207 0 208 60 0
60 0 0 -217z m509 87 c42 -153 57 -152 91 9 25 120 26 121 95 121 47 0 66 -8
60 -25 -5 -14 -44 -127 -85 -253 -84 -251 -128 -316 -225 -335 -62 -11 -65 -9
-65 51 0 47 9 62 38 62 90 0 90 48 -4 279 l-90 221 75 0 75 0 35 -130z"/>
<path d="M2947 3048 c-47 -72 -17 -156 60 -164 72 -9 113 27 113 97 0 114
-113 158 -173 67z"/>
<path d="M3853 3063 c-48 -52 -41 -117 17 -155 100 -65 204 75 119 161 -42 41
-95 39 -136 -6z"/>
</g>
</svg>
